<svg width="72" height="72" viewBox="0 0 72 72" fill="none" xmlns="http://www.w3.org/2000/svg">
<path d="M27.8047 60.6074H67.9609V44.2285H27.8047V60.6074ZM4.01465 34.335H44.1738V17.957H4.01465V34.335ZM49.5674 8.09863H57.0488V4.0332H49.5674V8.09863ZM14.9688 8.08398H46.2432V4.02246H14.9688V8.08398ZM71.2529 62.7207L71.2285 62.7715C71.023 63.2021 70.7381 63.4967 70.377 63.6777C70.1105 63.8113 69.8141 63.8779 69.4971 63.9004L69.1738 63.9092C66.4051 63.8746 63.6377 63.8965 60.8643 63.8965H60.3135C60.3109 65.6966 60.2838 67.4204 60.3291 69.1445V69.1455C60.3407 69.5914 60.2785 69.9979 60.1006 70.3535C59.9209 70.7127 59.6327 71.0003 59.2275 71.2227L59.1709 71.2539H12.8301L12.7744 71.2236C12.3643 71.0003 12.0812 70.7093 11.9053 70.3486C11.7317 69.9928 11.6709 69.5868 11.6719 69.1455C11.6938 58.8283 11.6865 48.5112 11.6865 38.1934V37.6211C8.62628 37.6212 5.65621 37.6229 2.68848 37.6211V37.6201C2.05924 37.62 1.55448 37.4955 1.21387 37.1504C0.874008 36.806 0.751018 36.2971 0.750977 35.6631C0.74915 29.3084 0.74915 22.9534 0.750977 16.5986L0.757812 16.374C0.786422 15.8638 0.918544 15.4476 1.21387 15.1533C1.55117 14.8172 2.04811 14.6924 2.66309 14.6914H11.6865V14.1396C11.6865 10.379 11.7066 6.6245 11.6719 2.86719C11.668 2.425 11.7281 2.01765 11.9023 1.66113C12.0789 1.30003 12.3634 1.00942 12.7744 0.787109L12.8301 0.756836H58.8555V0.579102L59.2246 0.780273C59.6349 1.0037 59.9186 1.29504 60.0947 1.65625C60.2685 2.01256 60.3291 2.41875 60.3271 2.86035C60.2998 8.41938 60.3125 13.9765 60.3125 19.5371C60.3125 19.7018 60.3214 19.91 60.3018 20.1064C60.2213 20.971 59.5624 21.6123 58.7119 21.6211C57.889 21.6292 57.2168 21.0517 57.1025 20.2256L57.0879 20.0566C57.0565 19.3223 57.0762 18.5783 57.0762 17.8584V11.4238H14.9717V14.6865H45.3359C46.072 14.6866 46.6357 14.7838 46.999 15.1436C47.3629 15.5041 47.4609 16.0641 47.4609 16.7939V35.5225C47.4609 36.2361 47.3559 36.7882 46.999 37.1494C46.6412 37.5115 46.0927 37.6191 45.3848 37.6191H14.9717V67.9756H57.0439V63.8926H26.7441C25.9547 63.8926 25.3634 63.8079 24.9932 63.4316C24.6244 63.0569 24.541 62.4598 24.541 61.6592V43C24.541 42.315 24.6555 41.7782 25.0146 41.4238C25.373 41.0705 25.9152 40.958 26.6084 40.958H57.0801V40.4609C57.0801 37.8182 57.0766 35.174 57.082 32.5322C57.0821 32.0898 57.1767 31.7048 57.3799 31.3984C57.5852 31.089 57.888 30.8806 58.2637 30.7695L58.4619 30.7227C58.9226 30.6445 59.3607 30.7736 59.6953 31.0566C60.0753 31.3782 60.3074 31.8854 60.3105 32.4785C60.3215 35.1224 60.3145 37.7677 60.3145 40.4082V40.96H62.0244C64.3969 40.96 66.7628 40.9854 69.1289 40.9453C69.5705 40.9376 69.977 40.9992 70.335 41.1729C70.6966 41.3484 70.9914 41.63 71.2207 42.0322L71.2529 42.0898V62.7207Z" fill="#FD6F00" stroke="#FD6F00" stroke-width="0.5"/>
</svg>
