<svg width="49" height="85" viewBox="0 0 49 85" fill="none" xmlns="http://www.w3.org/2000/svg">
<path d="M41.3027 0.5C43.4881 0.50006 45.2997 1.16443 46.5664 2.42969C47.8332 3.69508 48.4988 5.50587 48.5 7.68945V76.8223C48.5 78.9784 47.8288 80.7769 46.5664 82.0371C45.304 83.2973 43.5026 83.9668 41.3428 83.9668H7.65723C5.50019 83.9668 3.69896 83.2956 2.43652 82.0342C1.17426 80.7728 0.50201 78.9735 0.501953 76.8184V43.4092L0.5 43.4111V7.6875C0.5 5.50665 1.1668 3.69613 2.43457 2.43066C3.70223 1.16535 5.5156 0.5 7.7002 0.5H41.3027ZM3.52051 76.7061C3.52051 78.1703 3.91196 79.2129 4.59277 79.8906C5.2739 80.5685 6.32156 80.9579 7.79395 80.958H41.3906C41.6869 80.958 41.9404 80.9645 42.1973 80.9482L42.3672 80.9326C44.1108 80.7319 45.5544 79.3258 45.6123 77.6816C45.6986 75.1816 45.6449 72.6867 45.6377 70.1172H3.52051V76.7061ZM7.12207 3.51758H7.11816C5.40077 3.58209 3.92059 4.71646 3.68457 6.29102C3.58181 6.97834 3.56956 7.68834 3.58594 8.43164C3.59847 9.00037 3.62821 9.61473 3.64062 10.2246C5.41305 10.2258 7.17837 10.232 8.94727 10.2197H8.94824C9.33456 10.2173 9.7616 10.2701 10.1133 10.498C10.4966 10.7466 10.7076 11.1477 10.752 11.6582C10.7937 12.1399 10.6188 12.5662 10.2441 12.8535C9.8959 13.1205 9.4267 13.2283 8.92871 13.2334H3.56836V67.0068H45.5869V13.2334H17.0625C17.0172 13.2334 16.9616 13.2382 16.8867 13.2451C16.8195 13.2513 16.7279 13.2601 16.6416 13.2646C16.4932 13.2725 16.2024 13.281 15.9561 13.1143L15.9541 13.1133C15.7689 12.9867 15.5439 12.8219 15.3496 12.6289C15.1624 12.443 14.9565 12.185 14.8809 11.8652L14.8799 11.8633C14.7776 11.4227 14.9006 11.0208 15.1768 10.7275C15.4369 10.4514 15.8034 10.2991 16.1699 10.2451C16.4923 10.1979 16.8631 10.2246 17.085 10.2246H45.6504V7.68262C45.6504 6.27976 45.2562 5.25542 44.5791 4.58105C43.9017 3.9064 42.8718 3.51367 41.4619 3.51367H7.68848C7.47764 3.51367 7.30252 3.50935 7.12207 3.51758Z" fill="#FD6F00" stroke="#FD6F00"/>
<path d="M24.6106 16.0863C29.6631 16.0863 34.7155 16.0863 39.7679 16.0863C40.9697 16.0863 41.26 16.3724 41.26 17.5592C41.26 26.7495 41.26 35.9376 41.26 45.128C41.26 46.3058 40.9652 46.5919 39.7589 46.5919C29.6541 46.5919 19.547 46.5919 9.44209 46.5919C8.18629 46.5919 7.90723 46.317 7.90723 45.0766C7.90723 35.9153 7.90723 26.754 7.90723 17.5927C7.90723 16.3567 8.18404 16.0863 9.45109 16.0863C14.5035 16.0863 19.556 16.0863 24.6084 16.0863H24.6106ZM23.0915 31.3402C18.6895 27.3463 14.3865 23.4395 10.0002 19.4612V43.2237C14.4045 39.2253 18.712 35.3163 23.0915 31.3402ZM39.2143 19.4276C34.783 23.4484 30.4598 27.3708 26.0847 31.3402C30.4778 35.3252 34.792 39.241 39.2143 43.2528V19.4254V19.4276ZM11.5666 18.1358C16.0046 22.161 20.2874 26.0455 24.5926 29.9523C28.9474 25.9986 33.2189 22.1208 37.6052 18.1358H11.5666ZM24.5881 32.7259C20.2244 36.6886 15.9551 40.5641 11.5801 44.5379H37.6029C33.2031 40.544 28.9271 36.664 24.5881 32.7259Z" fill="black"/>
<path d="M24.5001 57.6574C19.5872 57.6574 14.6743 57.6574 9.76138 57.6574C9.48232 57.6574 9.12223 57.7423 8.93994 57.6038C8.61586 57.3602 8.19727 56.978 8.19727 56.6517C8.19727 56.3276 8.61811 55.9432 8.93994 55.6996C9.12448 55.561 9.48232 55.6481 9.76363 55.6481C19.6457 55.6481 29.5278 55.6481 39.4098 55.6481C39.6349 55.6481 39.8622 55.6325 40.0827 55.6593C40.6679 55.7286 41.019 56.0773 41.019 56.6539C41.019 57.2283 40.6656 57.5792 40.0827 57.6485C39.8329 57.6775 39.5786 57.6597 39.3243 57.6597C34.3821 57.6597 29.4422 57.6597 24.5001 57.6597V57.6574Z" fill="#FD6F00"/>
<path d="M24.5311 62.6861C19.6182 62.6861 14.7053 62.6861 9.79241 62.6861C9.51109 62.6861 9.15776 62.7755 8.96872 62.6414C8.63789 62.4068 8.17653 62.0134 8.19904 61.7184C8.22379 61.3608 8.65814 60.9898 8.99122 60.7171C9.14426 60.5919 9.47958 60.6791 9.73164 60.6791C19.643 60.6791 29.552 60.6791 39.4634 60.6791C39.6884 60.6791 39.981 60.5986 40.1228 60.7082C40.4648 60.9741 40.9104 61.2937 40.9915 61.6603C41.1107 62.2011 40.6966 62.59 40.1138 62.6727C39.8662 62.7085 39.6096 62.6884 39.3576 62.6884C34.4154 62.6884 29.4755 62.6884 24.5334 62.6884L24.5311 62.6861Z" fill="#FD6F00"/>
<path d="M16.8348 52.4611C14.3953 52.4611 11.9579 52.4633 9.51837 52.4611C8.62941 52.4611 8.14555 52.1057 8.13879 51.4687C8.12979 50.8273 8.61591 50.454 9.49361 50.454C14.3998 50.4496 19.3059 50.4518 24.2121 50.454C25.1303 50.454 25.5781 50.787 25.5871 51.4441C25.5961 52.0923 25.1213 52.4588 24.2368 52.4611C21.7702 52.4655 19.3037 52.4611 16.8348 52.4611Z" fill="#FD6F00"/>
<path d="M24.5875 78.7424C22.5351 78.7603 20.7616 77.0103 20.7549 74.9608C20.7504 72.8889 22.4428 71.1724 24.5335 71.1277C26.6243 71.0853 28.4157 72.8509 28.4044 74.9473C28.3954 77.0125 26.6715 78.7245 24.5853 78.7401L24.5875 78.7424ZM26.388 74.9451C26.397 73.9975 25.5935 73.1728 24.6371 73.1437C23.6513 73.1146 22.7916 73.9394 22.7826 74.925C22.7736 75.8659 23.5793 76.6974 24.5335 76.7309C25.5035 76.7644 26.3812 75.9218 26.3902 74.9451H26.388Z" fill="black"/>
</svg>
